<svg viewBox="0 0 31 16" version="1.1" xmlns="http://www.w3.org/2000/svg" style="fill-rule:evenodd;clip-rule:evenodd;stroke-linejoin:round;stroke-miterlimit:2;">
  <g>
    <path d="M22.81,10.139c-0,-0 -0.299,5.221 -7.635,5.221c-8.087,0 -8.719,-8.463 -15.175,-2.228c-0,0 0.641,-3.567 4.677,-5.018c1.031,-0.37 2.283,-0.603 3.803,-0.603c6.645,0 7.857,8.402 14.33,2.628Z" style="fill:#c36a2d;"/>
    <path d="M1.394,11.301c2.063,-1.375 3.887,-1.221 5.896,0.195c-0.057,-0.781 -0.42,-1.288 -0.755,-1.562c0.432,-0.259 1.17,-0.257 1.799,-0.127c-0.364,-0.438 -0.836,-0.957 -1.46,-0.966c0.844,-0.341 2.476,-0.494 2.596,-0.776c-3.646,-0.362 -6.69,0.976 -8.076,3.236Z" style="fill:#f4f4f4;"/>
  </g>
  <g>
    <path d="M7.91,5.221c0,0 0.299,-5.221 7.635,-5.221c8.087,-0 8.719,8.463 15.175,2.228c0,-0 -0.641,3.567 -4.677,5.018c-1.031,0.37 -2.283,0.603 -3.803,0.603c-6.645,-0 -7.857,-8.402 -14.33,-2.628Z" style="fill:#c36a2d;"/>
    <path d="M29.326,4.059c-2.063,1.375 -3.887,1.221 -5.896,-0.195c0.057,0.781 0.42,1.288 0.755,1.562c-0.432,0.259 -1.17,0.257 -1.799,0.127c0.364,0.438 0.836,0.957 1.46,0.966c-0.844,0.341 -2.476,0.494 -2.596,0.776c3.646,0.362 6.69,-0.976 8.076,-3.236Z" style="fill:#f4f4f4;"/>
  </g>
</svg>
